<svg width="53" height="55" viewBox="0 0 53 55" fill="none" xmlns="http://www.w3.org/2000/svg">
<path d="M43.0849 55.0013H9.63568C9.07256 55.0013 8.62207 54.5533 8.62207 53.9933V52.7613C8.62207 46.601 11.7755 41.1128 16.9562 37.8646C17.4067 37.5286 18.0824 37.6406 18.3077 38.0886C18.6456 38.5367 18.4203 39.2087 17.9698 39.4327C13.3523 42.3448 10.5367 47.273 10.5367 52.7613V53.0973H42.0712V52.7613C42.0712 47.273 39.2557 42.3448 34.6381 39.4327C34.3002 39.2087 34.075 38.5367 34.4128 38.0886C34.7507 37.6406 35.3138 37.5286 35.7643 37.7526C40.945 41.0008 44.0985 46.601 44.0985 52.6492V53.9933C44.0985 54.5533 43.648 55.0013 43.0849 55.0013Z" fill="white"/>
<path d="M26.3035 34.048C21.7986 34.048 18.082 30.3518 18.082 25.8717C18.082 21.3915 21.7986 17.6953 26.3035 17.6953C30.8085 17.6953 34.6377 21.2795 34.6377 25.8717C34.6377 30.4638 30.9211 34.048 26.3035 34.048ZM26.3035 19.5994C22.9248 19.5994 20.1093 22.3995 20.1093 25.8717C20.1093 29.3438 22.9248 32.1439 26.4162 32.1439C29.9075 32.1439 32.7231 29.3438 32.7231 25.8717C32.7231 22.3995 29.7949 19.5994 26.3035 19.5994Z" fill="white"/>
<path d="M22.9243 13.3286C22.5865 13.3286 22.2486 13.2166 22.0233 12.9925C21.4602 12.6565 21.235 11.8725 21.4602 11.3125L22.3612 8.40035L19.9961 6.72028C19.433 6.27226 19.2077 5.60023 19.433 5.04021C19.6582 4.36818 20.2214 4.03217 20.8971 4.03217H23.9379L24.8389 1.12005C25.0642 0.448019 25.7399 0 26.303 0C26.9788 0 27.5419 0.448019 27.7671 1.00804L28.6681 3.92016H31.8216C32.4973 3.92016 33.0604 4.36818 33.2857 4.92821C33.5109 5.60023 33.2857 6.27226 32.7226 6.60828L30.2448 8.51235L31.1458 11.4245C31.3711 12.0965 31.1458 12.7685 30.5827 13.1045C30.0196 13.4406 29.3439 13.4406 28.7807 13.1045L26.303 11.3125L23.8253 13.1045C23.6001 13.2166 23.2622 13.3286 22.9243 13.3286ZM26.303 9.18438C26.6409 9.18438 26.9788 9.29639 27.204 9.5204L28.8934 10.7524L28.2176 8.73636C27.9924 8.06434 28.2176 7.39231 28.7807 7.05629L30.4701 5.82424H28.4429C27.7671 5.82424 27.204 5.37622 26.9788 4.8162L26.303 2.91212L25.7399 4.8162C25.5147 5.48823 24.9515 5.93625 24.2758 5.93625H22.2486L23.9379 7.05629C24.5011 7.39231 24.7263 8.17634 24.5011 8.73636L23.8253 10.7524L25.5147 9.5204C25.7399 9.29639 26.0778 9.18438 26.303 9.18438Z" fill="white"/>
<path d="M41.1698 13.3286C40.8319 13.3286 40.494 13.2166 40.2688 13.1045C39.7057 12.6565 39.4804 11.9845 39.7057 11.4245L40.6066 8.51235L38.1289 6.72028C37.6784 6.27226 37.4532 5.60023 37.5658 5.04021C37.7911 4.36818 38.3542 4.03217 39.0299 4.03217H42.0707L43.0844 1.00804C43.3096 0.448019 43.8727 0 44.5485 0C45.2242 0 45.7873 0.448019 46.0126 1.00804L46.9136 3.92016H49.9544C50.6301 3.92016 51.1933 4.36818 51.4185 4.92821C51.6437 5.60023 51.4185 6.27226 50.8554 6.60828L48.3777 8.51235L49.2787 11.4245C49.5039 12.0965 49.2786 12.7685 48.7155 13.1045C48.265 13.4406 47.5893 13.4406 47.0262 13.1045L44.5485 11.3125L42.0707 13.1045C41.7329 13.2166 41.5076 13.3286 41.1698 13.3286ZM44.5485 9.18438C44.8863 9.18438 45.2242 9.29639 45.4495 9.5204L47.1388 10.7524L46.4631 8.73636C46.2378 8.06434 46.4631 7.39231 47.0262 7.05629L48.7155 5.82424H46.5757C45.8999 5.82424 45.3368 5.37622 45.1116 4.8162L44.5485 2.91212L43.8727 4.8162C43.6475 5.48823 43.0844 5.93625 42.4086 5.93625H40.3814L42.0707 7.1683C42.6339 7.50431 42.8591 8.28835 42.6339 8.84837L41.9581 10.7524L43.6475 9.5204C43.8727 9.29639 44.2106 9.18438 44.5485 9.18438Z" fill="white"/>
<path d="M4.67855 13.3286C4.34068 13.3286 4.00281 13.2166 3.77756 12.9925C3.21444 12.6565 2.9892 11.8725 3.21444 11.3125L4.11543 8.40035L1.63771 6.72028C1.0746 6.27226 0.84935 5.60023 1.0746 5.04021C1.29984 4.36818 1.86296 3.92016 2.5387 3.92016H5.57954L6.48052 1.00804C6.81839 0.448019 7.38151 0 8.05725 0C8.73299 0 9.29611 0.448019 9.52136 1.00804L10.4223 3.92016H13.4632C14.1389 3.92016 14.702 4.36818 14.9273 4.92821C15.1525 5.60023 14.9273 6.27226 14.3642 6.60828L11.8864 8.51235L12.7874 11.4245C13.0127 12.0965 12.7874 12.7685 12.2243 13.1045C11.6612 13.4406 10.9855 13.4406 10.4223 13.1045L8.05725 11.3125L5.57954 13.1045C5.24167 13.2166 4.90379 13.3286 4.67855 13.3286ZM3.89018 5.93625L5.57954 7.1683C6.14265 7.50431 6.3679 8.28835 6.14265 8.84837L5.46691 10.7524L7.15626 9.5204C7.71938 9.18438 8.39512 9.18438 8.95824 9.5204L10.6476 10.7524L9.97185 8.73636C9.7466 8.06434 9.97185 7.39231 10.535 7.05629L12.2243 5.82424H10.0845C9.40873 5.82424 8.84562 5.37622 8.62037 4.8162L8.05725 2.91212L7.38151 4.8162C7.15626 5.48823 6.59315 5.93625 5.91741 5.93625H3.89018Z" fill="white"/>
<path d="M51.7845 55.0005H0.935864C0.415939 55.0005 0 54.5524 0 53.9924C0 53.4324 0.415939 52.9844 0.935864 52.9844H51.7845C52.3044 52.9844 52.7203 53.4324 52.7203 53.9924C52.6163 54.5524 52.3044 55.0005 51.7845 55.0005Z" fill="white"/>
</svg>
