<svg width="61" height="55" viewBox="0 0 61 55" fill="none" xmlns="http://www.w3.org/2000/svg">
<g clip-path="url(#clip0_977_810)">
<path d="M56.6595 55.0027H3.7931C1.65948 55.0027 0 53.2247 0 51.2096V17.3087C0 15.1751 1.65948 13.5156 3.7931 13.5156H56.6595C58.7931 13.5156 60.4526 15.1751 60.4526 17.3087V51.2096C60.4526 53.2247 58.6746 55.0027 56.6595 55.0027ZM3.7931 15.6492C2.84483 15.6492 2.13362 16.3605 2.13362 17.3087V51.2096C2.13362 52.1579 2.84483 52.8691 3.7931 52.8691H56.6595C57.6078 52.8691 58.319 52.1579 58.319 51.2096V17.3087C58.319 16.3605 57.6078 15.6492 56.6595 15.6492H3.7931Z" fill="white"/>
<path d="M56.6598 15.6482H3.79337C3.31923 15.6482 2.8451 15.2926 2.72656 14.8184C2.72656 14.2258 2.96363 13.7516 3.43777 13.6331L27.1447 3.55765C27.3817 3.43912 27.7373 3.43912 27.9744 3.55765C28.33 3.67619 28.4485 3.91325 28.5671 4.15032C28.8042 4.86153 29.3968 5.4542 30.2266 5.4542C31.0563 5.4542 31.649 4.86153 31.886 4.15032C31.886 3.91325 32.1231 3.67619 32.3602 3.55765C32.5973 3.43912 32.9529 3.43912 33.1899 3.55765L56.8968 13.6331C57.371 13.8702 57.608 14.3443 57.4895 14.8184C57.608 15.2926 57.1339 15.6482 56.6598 15.6482ZM9.00889 13.5145H51.5628L33.427 5.80981C32.7158 6.87662 31.5304 7.58782 30.2266 7.58782C28.9227 7.58782 27.7373 6.87662 27.0261 5.80981L9.00889 13.5145Z" fill="white"/>
<path d="M30.2267 7.58621C28.0931 7.58621 26.4336 5.92672 26.4336 3.7931C26.4336 1.65948 28.0931 0 30.2267 0C32.3603 0 34.0198 1.65948 34.0198 3.7931C34.0198 5.92672 32.3603 7.58621 30.2267 7.58621ZM30.2267 2.13362C29.2784 2.13362 28.5672 2.84483 28.5672 3.7931C28.5672 4.74138 29.2784 5.45259 30.2267 5.45259C31.175 5.45259 31.8862 4.74138 31.8862 3.7931C31.8862 2.84483 31.175 2.13362 30.2267 2.13362Z" fill="white"/>
<path d="M14.9349 48.6018H7.4672C6.87453 48.6018 6.40039 48.1277 6.40039 47.535V28.3324C6.40039 27.7398 6.87453 27.2656 7.4672 27.2656H14.9349C15.5275 27.2656 16.0017 27.7398 16.0017 28.3324V47.535C16.0017 48.1277 15.5275 48.6018 14.9349 48.6018ZM8.53401 46.4682H13.9866V29.3992H8.53401V46.4682Z" fill="white"/>
<path d="M27.6185 48.5967H20.1508C19.5581 48.5967 19.084 48.1226 19.084 47.5299V21.2152C19.084 20.6226 19.5581 20.1484 20.1508 20.1484H27.6185C28.2111 20.1484 28.6853 20.6226 28.6853 21.2152V47.5299C28.6853 48.1226 28.2111 48.5967 27.6185 48.5967ZM21.2176 46.4631H26.6702V22.2821H21.2176V46.4631Z" fill="white"/>
<path d="M40.3021 48.5954H32.8344C32.2417 48.5954 31.7676 48.1212 31.7676 47.5286V38.5199C31.7676 37.9273 32.2417 37.4531 32.8344 37.4531H40.3021C40.8947 37.4531 41.3689 37.9273 41.3689 38.5199V47.6471C41.3689 48.1212 40.8947 48.5954 40.3021 48.5954ZM33.9012 46.4617H39.3538V39.4682H33.9012V46.4617Z" fill="white"/>
<path d="M52.985 48.5964H45.3988C44.8062 48.5964 44.332 48.1223 44.332 47.5296V25.3637C44.332 24.771 44.8062 24.2969 45.3988 24.2969H52.8665C53.4592 24.2969 53.9333 24.771 53.9333 25.3637V47.5296C54.0519 48.1223 53.5777 48.5964 52.985 48.5964ZM46.4657 46.4628H51.9182V26.4305H46.4657V46.4628Z" fill="white"/>
<path d="M54.5263 48.6024H5.92716C5.33449 48.6024 4.86035 48.1282 4.86035 47.5356C4.86035 46.9429 5.33449 46.4688 5.92716 46.4688H54.5263C55.119 46.4688 55.5931 46.9429 55.5931 47.5356C55.5931 48.1282 55.119 48.6024 54.5263 48.6024Z" fill="white"/>
</g>
<defs>
<clipPath id="clip0_977_810">
<rect width="60.4526" height="55" fill="white"/>
</clipPath>
</defs>
</svg>
