<svg width="56" height="55" viewBox="0 0 56 55" fill="none" xmlns="http://www.w3.org/2000/svg">
<g clip-path="url(#clip0_977_832)">
<path d="M51.0081 44.3498H4.10282C1.88508 44.3498 0 42.5756 0 40.247V10.1966C0 7.97883 1.88508 6.09375 4.10282 6.09375H26.3911C26.8347 6.09375 27.1673 6.42641 27.1673 6.86996C27.1673 7.31351 26.8347 7.64617 26.3911 7.64617H4.10282C2.66129 7.64617 1.55242 8.75504 1.55242 10.1966V40.247C1.55242 41.6885 2.66129 42.7974 4.10282 42.7974H51.0081C52.4496 42.7974 53.5585 41.6885 53.5585 40.247V10.1966C53.5585 8.75504 52.4496 7.64617 51.0081 7.64617C50.5645 7.64617 50.2319 7.31351 50.2319 6.86996C50.2319 6.42641 50.5645 6.09375 51.0081 6.09375C53.2258 6.09375 55.1109 7.97883 55.1109 10.1966V40.247C55.1109 42.5756 53.3367 44.3498 51.0081 44.3498Z" fill="white"/>
<path d="M54.3347 40.3586H0.77621C0.332661 40.3586 0 39.9151 0 39.4715C0 39.028 0.332661 38.6953 0.77621 38.6953H54.3347C54.7782 38.6953 55.1109 39.028 55.1109 39.4715C55.1109 39.9151 54.7782 40.3586 54.3347 40.3586Z" fill="white"/>
<path d="M32.4899 47.4541H22.6209C22.1774 47.4541 21.8447 47.1215 21.8447 46.6779V43.5731C21.8447 43.1295 22.1774 42.7969 22.6209 42.7969H32.4899C32.9334 42.7969 33.2661 43.1295 33.2661 43.5731V46.6779C33.2661 47.1215 32.9334 47.4541 32.4899 47.4541ZM23.3971 45.9017H31.7137V44.3493H23.3971V45.9017Z" fill="white"/>
<path d="M39.2544 54.999H15.9681C15.6355 54.999 15.3028 54.7772 15.1919 54.3337C15.081 54.001 15.3028 53.6684 15.6355 53.4466C23.2867 50.3417 24.8391 46.4607 24.8391 46.3498C24.95 46.128 25.1718 45.9062 25.5044 45.9062H29.6073C29.9399 45.9062 30.2726 46.128 30.3835 46.4607C30.3835 46.5716 31.9359 50.4526 39.5871 53.5575C39.9198 53.6683 40.1415 54.001 40.0306 54.3337C39.9198 54.7772 39.5871 54.999 39.2544 54.999ZM19.4056 53.4466H35.706C31.3814 51.0071 29.7181 48.5675 29.0528 47.4587H26.0589C25.5044 48.5675 23.7302 51.0071 19.4056 53.4466Z" fill="white"/>
<path d="M46.5722 54.8884H8.53793C8.09438 54.8884 7.76172 54.5557 7.76172 54.1121C7.76172 53.6686 8.09438 53.3359 8.53793 53.3359H46.5722C47.0157 53.3359 47.3484 53.6686 47.3484 54.1121C47.4593 54.5557 47.0157 54.8884 46.5722 54.8884Z" fill="white"/>
<path d="M40.1407 23.2852C39.808 23.2852 39.4754 23.1744 39.2536 23.0635C38.5883 22.8417 38.1447 22.3982 37.9229 21.7328L30.9371 5.76509C30.3826 4.54533 30.9371 3.1038 32.2677 2.54937C33.4875 1.99493 34.929 2.54937 35.4834 3.88001L42.3584 19.9586C42.5802 20.5131 42.5802 21.2893 42.3584 21.8437C42.1367 22.3982 41.6931 22.8417 41.1387 23.1744C40.806 23.2852 40.4734 23.2852 40.1407 23.2852ZM33.2657 3.9909C33.1548 3.9909 33.0439 3.9909 32.933 4.10178C32.3786 4.21267 32.1568 4.76711 32.3786 5.21066L39.2536 21.2893C39.3645 21.5111 39.4754 21.6219 39.6971 21.7328C39.9189 21.8437 40.1407 21.8437 40.3625 21.7328C40.5842 21.6219 40.6951 21.5111 40.806 21.2893C40.9169 21.0675 40.9169 20.8457 40.806 20.624L34.0419 4.43445C33.931 4.10178 33.5984 3.9909 33.2657 3.9909Z" fill="white"/>
<path d="M38.5884 22.3982C38.4775 22.3982 38.3666 22.3982 38.1448 22.2873C38.0339 22.2873 32.1569 18.9607 24.5057 21.622C24.0622 21.7329 23.7295 21.622 23.5077 21.1784L21.6226 16.6321C21.5118 16.2994 21.6226 15.8558 21.9553 15.6341C29.163 11.8639 30.8263 5.32157 30.8263 5.21069C30.9372 4.87802 31.1589 4.65625 31.4916 4.65625C31.8242 4.65625 32.1569 4.76714 32.2678 5.0998L39.2537 21.2893C39.3646 21.622 39.2537 21.9546 39.0319 22.1764C39.0319 22.2873 38.8101 22.3982 38.5884 22.3982ZM30.7154 18.9607C33.4876 18.9607 35.7053 19.5151 37.1468 20.0696L31.7134 7.53931C30.7154 9.97883 28.2759 13.8599 23.3968 16.7429L24.7275 19.8478C26.8343 19.1825 28.8303 18.9607 30.7154 18.9607Z" fill="white"/>
<path d="M19.6274 25.7228C19.4057 25.7228 19.1839 25.7228 19.073 25.6119C18.6295 25.3901 18.2968 25.0575 18.1859 24.7248L15.3028 18.1825C15.192 17.8498 15.0811 17.4063 15.3028 16.9627C15.5246 16.5192 15.7464 16.2974 16.1899 16.0756L20.6254 14.1905C20.9581 14.0797 21.4016 13.9688 21.8452 14.1905C22.1778 14.3014 22.5105 14.6341 22.6214 14.9668L25.5045 21.62C25.7262 21.9526 25.7262 22.3962 25.5045 22.8397C25.3936 23.1724 25.0609 23.5051 24.6174 23.6159L20.1819 25.501C20.071 25.6119 19.8492 25.7228 19.6274 25.7228ZM21.1799 15.6321L16.7444 17.5172L19.6274 24.0595L24.0629 22.1744L21.1799 15.6321Z" fill="white"/>
<path d="M16.1897 24.9488C15.968 24.9488 15.7462 24.9488 15.5244 24.838C15.1918 24.7271 14.7482 24.3944 14.6373 23.9509L13.5285 21.2896C13.3067 20.846 13.3067 20.4025 13.4176 19.9589C13.6393 19.5154 13.972 19.1827 14.4155 18.9609L16.1897 18.1847C16.4115 18.0738 16.6333 18.0738 16.7442 18.1847C16.9659 18.2956 17.0768 18.4065 17.1877 18.6283L19.0728 23.0638C19.2946 23.5073 19.0728 23.9509 18.6293 24.0617L16.9659 24.838C16.7442 24.9488 16.5224 24.9488 16.1897 24.9488ZM16.0789 19.9589L14.97 20.4025C14.8591 20.4025 14.8591 20.5134 14.8591 20.5134V20.6242L15.968 23.2855C15.968 23.3964 16.0789 23.3964 16.0789 23.3964H16.1897L17.2986 22.9529L16.0789 19.9589Z" fill="white"/>
<path d="M23.9513 33.1547C23.6186 33.1547 23.3968 33.0439 23.0642 32.933C22.6206 32.7112 22.1771 32.1568 22.0662 31.6023L20.4029 24.5055C20.292 24.062 20.5138 23.7293 20.8464 23.5076L24.0621 22.1769C24.2839 22.066 24.5057 22.066 24.7275 22.1769C24.9492 22.2878 25.0601 22.5096 25.171 22.7314L27.167 30.4934C27.167 30.6043 27.167 30.6043 27.167 30.7152C27.167 31.4914 26.7234 32.1568 26.0581 32.4894L24.7275 32.933C24.5057 33.0439 24.2839 33.1547 23.9513 33.1547ZM22.0662 24.7273L23.6186 31.2697C23.6186 31.3805 23.7295 31.4914 23.8404 31.4914C23.8404 31.4914 23.9513 31.6023 24.173 31.4914L25.3928 30.937C25.5037 30.937 25.5037 30.8261 25.6146 30.7152L23.8404 23.9511L22.0662 24.7273Z" fill="white"/>
<path d="M42.1371 11.3055C41.8044 11.3055 41.5827 11.0837 41.4718 10.7511C41.25 10.3075 41.4718 9.86397 41.9153 9.75308L47.5706 7.31357C48.0141 7.09179 48.4577 7.31357 48.5685 7.75711C48.7903 8.20066 48.5685 8.64421 48.125 8.7551L42.4698 11.1946C42.3589 11.1946 42.248 11.3055 42.1371 11.3055Z" fill="white"/>
<path d="M39.9192 6.20615C39.6974 6.20615 39.4756 6.09526 39.3647 5.98438C39.0321 5.65171 39.0321 5.20817 39.3647 4.8755L44.022 0.218246C44.3547 -0.114415 44.7982 -0.114415 45.1309 0.218246C45.4635 0.550907 45.4635 0.994456 45.1309 1.32712L40.4736 5.98438C40.3627 6.09526 40.1409 6.20615 39.9192 6.20615Z" fill="white"/>
<path d="M44.3553 16.2976C43.9118 16.2976 43.5791 15.965 43.5791 15.5214C43.5791 15.0779 43.9118 14.7452 44.3553 14.7452L50.8977 14.5234C51.3412 14.5234 51.6739 14.8561 51.6739 15.2996C51.6739 15.7432 51.3412 16.0759 50.8977 16.0759L44.3553 16.2976Z" fill="white"/>
<path d="M49.7887 28.2712H32.0467C31.6032 28.2712 31.2705 27.9385 31.2705 27.495C31.2705 27.0514 31.6032 26.7188 32.0467 26.7188H49.7887C50.2322 26.7188 50.5649 27.0514 50.5649 27.495C50.5649 27.9385 50.2322 28.2712 49.7887 28.2712Z" fill="white"/>
<path d="M49.7887 33.154H32.0467C31.6032 33.154 31.2705 32.8213 31.2705 32.3778C31.2705 31.9342 31.6032 31.6016 32.0467 31.6016H49.7887C50.2322 31.6016 50.5649 31.9342 50.5649 32.3778C50.5649 32.8213 50.2322 33.154 49.7887 33.154Z" fill="white"/>
<path d="M15.0804 28.2712H5.8768C5.43325 28.2712 5.10059 27.9385 5.10059 27.495C5.10059 27.0514 5.43325 26.7188 5.8768 26.7188H15.0804C15.524 26.7188 15.8566 27.0514 15.8566 27.495C15.8566 27.9385 15.4131 28.2712 15.0804 28.2712Z" fill="white"/>
<path d="M17.4091 33.154H5.8768C5.43325 33.154 5.10059 32.8213 5.10059 32.3778C5.10059 31.9342 5.43325 31.6016 5.8768 31.6016H17.4091C17.8526 31.6016 18.1853 31.9342 18.1853 32.3778C18.1853 32.8213 17.8526 33.154 17.4091 33.154Z" fill="white"/>
</g>
<defs>
<clipPath id="clip0_977_832">
<rect width="55.1109" height="55" fill="white"/>
</clipPath>
</defs>
</svg>
