<svg width="37" height="55" viewBox="0 0 37 55" fill="none" xmlns="http://www.w3.org/2000/svg">
<g clip-path="url(#clip0_977_461)">
<path d="M19.8337 49.7837C15.7247 49.7837 12.4375 46.5123 12.4375 42.4231C12.4375 38.3339 15.7247 35.0625 19.8337 35.0625C21.1691 35.0625 22.4018 35.3692 23.6345 36.0848C24.0454 36.3915 24.2509 36.9026 23.9427 37.3116C23.6345 37.8227 23.1209 37.925 22.6073 37.7205C21.7855 37.2093 20.861 36.9026 19.8337 36.9026C16.752 36.9026 14.2866 39.3562 14.2866 42.4231C14.2866 45.49 16.752 48.0458 19.8337 48.0458C20.861 48.0458 21.7855 47.7391 22.6073 47.2279C23.0182 46.9212 23.6345 47.1257 23.84 47.5346C24.1482 47.9435 23.9427 48.5569 23.5318 48.7614C22.4018 49.477 21.1691 49.7837 19.8337 49.7837Z" fill="white"/>
<path d="M19.2178 45.1917H11.5134C10.9998 45.1917 10.5889 44.7828 10.5889 44.2716C10.5889 43.7605 10.9998 43.3516 11.5134 43.3516H19.3205C19.8341 43.3516 20.245 43.7605 20.245 44.2716C20.1423 44.7828 19.7314 45.1917 19.2178 45.1917Z" fill="white"/>
<path d="M21.5804 41.6058H11.5134C10.9998 41.6058 10.5889 41.1969 10.5889 40.6857C10.5889 40.1745 10.9998 39.7656 11.5134 39.7656H21.5804C22.0941 39.7656 22.505 40.1745 22.505 40.6857C22.4022 41.1969 21.9913 41.6058 21.5804 41.6058Z" fill="white"/>
<path d="M18.1821 54.9996C11.1968 54.9996 5.54688 49.3769 5.54688 42.4252C5.54688 35.4736 11.2995 29.9531 18.1821 29.9531C25.1674 29.9531 30.8172 35.5758 30.8172 42.5275C30.8172 49.4791 25.1674 54.9996 18.1821 54.9996ZM18.1821 31.7933C12.224 31.7933 7.39593 36.5981 7.39593 42.5275C7.39593 48.4568 12.224 53.2617 18.1821 53.2617C24.1401 53.2617 28.9682 48.4568 28.9682 42.5275C28.9682 36.5981 24.1401 31.7933 18.1821 31.7933Z" fill="white"/>
<path d="M18.1821 25.0465C11.1968 25.0465 5.54688 19.4238 5.54688 12.4721C5.54688 5.52045 11.2995 0 18.1821 0C25.1674 0 30.8172 5.62268 30.8172 12.5744C30.8172 19.526 25.1674 25.0465 18.1821 25.0465ZM18.1821 1.84015C12.224 1.84015 7.39593 6.64498 7.39593 12.5744C7.39593 18.5037 12.224 23.3086 18.1821 23.3086C24.1401 23.3086 28.9682 18.5037 28.9682 12.5744C28.9682 6.64498 24.1401 1.84015 18.1821 1.84015Z" fill="white"/>
<path d="M24.7566 33.84C24.2429 33.84 23.832 33.4311 23.832 32.9199V22.1857C23.832 21.6745 24.2429 21.2656 24.7566 21.2656C25.2702 21.2656 25.6811 21.6745 25.6811 22.1857V32.9199C25.6811 33.4311 25.2702 33.84 24.7566 33.84Z" fill="white"/>
<path d="M35.5432 43.348H29.8933C29.3797 43.348 28.9688 42.939 28.9688 42.4279C28.9688 41.9167 29.3797 41.5078 29.8933 41.5078H35.5432C36.0568 41.5078 36.4677 41.9167 36.4677 42.4279C36.4677 42.939 36.0568 43.348 35.5432 43.348Z" fill="white"/>
<path d="M35.5432 13.4964H29.8933C29.3797 13.4964 28.9688 13.0875 28.9688 12.5763C28.9688 12.0652 29.3797 11.6562 29.8933 11.6562H35.5432C36.0568 11.6562 36.4677 12.0652 36.4677 12.5763C36.4677 13.0875 36.0568 13.4964 35.5432 13.4964Z" fill="white"/>
<path d="M11.7107 33.84C11.197 33.84 10.7861 33.4311 10.7861 32.9199V22.1857C10.7861 21.6745 11.197 21.2656 11.7107 21.2656C12.2243 21.2656 12.6352 21.6745 12.6352 22.1857V32.9199C12.6352 33.4311 12.2243 33.84 11.7107 33.84Z" fill="white"/>
<path d="M6.5744 43.3473H0.924525C0.4109 43.3473 0 42.9384 0 42.5294C0 42.0183 0.4109 41.6094 0.924525 41.6094H6.5744C7.08803 41.6094 7.49893 42.0183 7.49893 42.5294C7.3962 42.9384 6.9853 43.3473 6.5744 43.3473Z" fill="white"/>
<path d="M6.5744 13.4964H0.924525C0.4109 13.4964 0 13.0875 0 12.5763C0 12.0652 0.4109 11.6562 0.924525 11.6562H6.5744C7.08803 11.6562 7.49893 12.0652 7.49893 12.5763C7.3962 13.0875 6.9853 13.4964 6.5744 13.4964Z" fill="white"/>
<path d="M35.5427 14.9276C35.0291 14.9276 34.6182 14.5187 34.6182 14.0076V12.5763C34.6182 12.0652 35.0291 11.6562 35.5427 11.6562C36.0563 11.6562 36.4672 12.0652 36.4672 12.5763V14.0076C36.4672 14.5187 36.0563 14.9276 35.5427 14.9276Z" fill="white"/>
<path d="M35.5427 35.1705C35.0291 35.1705 34.6182 34.7616 34.6182 34.2504V30.8768C34.6182 30.3657 35.0291 29.9568 35.5427 29.9568C36.0563 29.9568 36.4672 30.3657 36.4672 30.8768V34.2504C36.4672 34.7616 36.0563 35.1705 35.5427 35.1705ZM35.5427 25.0497C35.0291 25.0497 34.6182 24.6408 34.6182 24.1296V20.756C34.6182 20.2449 35.0291 19.8359 35.5427 19.8359C36.0563 19.8359 36.4672 20.2449 36.4672 20.756V24.1296C36.4672 24.6408 36.0563 25.0497 35.5427 25.0497Z" fill="white"/>
<path d="M35.5427 43.3495C35.0291 43.3495 34.6182 42.9406 34.6182 42.4294V40.9982C34.6182 40.487 35.0291 40.0781 35.5427 40.0781C36.0563 40.0781 36.4672 40.487 36.4672 40.9982V42.4294C36.4672 42.9406 36.0563 43.3495 35.5427 43.3495Z" fill="white"/>
<path d="M0.924525 14.9276C0.4109 14.9276 0 14.5187 0 14.0076V12.5763C0 12.0652 0.4109 11.6562 0.924525 11.6562C1.43815 11.6562 1.84905 12.0652 1.84905 12.5763V14.0076C1.84905 14.5187 1.43815 14.9276 0.924525 14.9276Z" fill="white"/>
<path d="M0.924525 35.1705C0.4109 35.1705 0 34.7616 0 34.2504V30.8768C0 30.3657 0.4109 29.9568 0.924525 29.9568C1.43815 29.9568 1.84905 30.3657 1.84905 30.8768V34.2504C1.84905 34.7616 1.43815 35.1705 0.924525 35.1705ZM0.924525 25.0497C0.4109 25.0497 0 24.6408 0 24.1296V20.756C0 20.2449 0.4109 19.8359 0.924525 19.8359C1.43815 19.8359 1.84905 20.2449 1.84905 20.756V24.1296C1.84905 24.6408 1.43815 25.0497 0.924525 25.0497Z" fill="white"/>
<path d="M0.924525 43.3495C0.4109 43.3495 0 42.9406 0 42.5317V40.9982C0 40.487 0.4109 40.0781 0.924525 40.0781C1.43815 40.0781 1.84905 40.487 1.84905 40.9982V42.4294C1.84905 42.9406 1.43815 43.3495 0.924525 43.3495Z" fill="white"/>
<path d="M14.6693 19.3359L11.8853 7.44794H14.1733L15.3733 14.5519L15.7093 16.9519H15.7733L16.1573 14.5519L17.3573 8.18394H19.4373L20.7013 14.5519L21.0853 16.9519H21.1653L21.5173 14.5519L22.6533 7.44794H24.7973L22.1573 19.3359H19.9653L18.9093 13.7999L18.3653 10.0079H18.3013L17.7893 13.7999L16.7653 19.3359H14.6693ZM11.3733 13.8159V12.8879L12.6693 12.7759H25.2933V13.8159H11.3733Z" fill="white"/>
</g>
<defs>
<clipPath id="clip0_977_461">
<rect width="36.4674" height="55" fill="white"/>
</clipPath>
</defs>
</svg>
