<svg width="55" height="47" viewBox="0 0 55 47" fill="none" xmlns="http://www.w3.org/2000/svg">
<path d="M54.0892 31.8534H0.910853C0.406977 31.8534 0 31.4481 0 30.9462C0 30.4444 0.406977 30.0391 0.910853 30.0391H54.0795C54.5833 30.0391 54.9903 30.4444 54.9903 30.9462C55 31.4481 54.593 31.8534 54.0892 31.8534Z" fill="white"/>
<path d="M30.8141 42.0308H24.1862C23.6824 42.0308 23.2754 41.6255 23.2754 41.1237V35.8447C23.2754 35.3428 23.6824 34.9375 24.1862 34.9375H30.8141C31.318 34.9375 31.725 35.3428 31.725 35.8447V41.1237C31.725 41.6159 31.318 42.0308 30.8141 42.0308ZM25.0971 40.2068H29.9033V36.7519H25.0971V40.2068Z" fill="white"/>
<path d="M36.8603 46.9472H18.1394C17.8196 46.9472 17.5289 46.7831 17.3642 46.5129C17.1995 46.2427 17.1898 45.9049 17.3254 45.625L19.8545 40.7031C20.0096 40.3943 20.3293 40.2109 20.6685 40.2109H34.3409C34.6801 40.2109 34.9999 40.404 35.1549 40.7031L37.684 45.625C37.8293 45.9049 37.8196 46.2427 37.6452 46.5129C37.4805 46.7831 37.1801 46.9472 36.8603 46.9472ZM19.6316 45.1329H35.3681L33.7789 42.0253H21.2208L19.6316 45.1329Z" fill="white"/>
<path d="M41.0747 46.955H13.9235C13.4197 46.955 13.0127 46.5496 13.0127 46.0478C13.0127 45.546 13.4197 45.1406 13.9235 45.1406H41.0747C41.5786 45.1406 41.9856 45.546 41.9856 46.0478C41.9856 46.5496 41.5786 46.955 41.0747 46.955Z" fill="white"/>
<path d="M50.8721 36.7503H4.12791C1.85078 36.7503 0 34.907 0 32.6487V4.11125C0 1.84331 1.85078 0 4.12791 0H50.8721C53.1492 0 55 1.84331 55 4.11125V32.6487C55 34.907 53.1492 36.7503 50.8721 36.7503ZM4.12791 1.824C2.85853 1.824 1.8314 2.84699 1.8314 4.11125V32.6487C1.8314 33.913 2.85853 34.936 4.12791 34.936H50.8721C52.1415 34.936 53.1686 33.913 53.1686 32.6487V4.11125C53.1686 2.84699 52.1415 1.824 50.8721 1.824H4.12791Z" fill="white"/>
<path d="M49.9418 6.04873H47.655C47.1511 6.04873 46.7441 5.64339 46.7441 5.14155C46.7441 4.63971 47.1511 4.23438 47.655 4.23438H49.9418C50.4457 4.23438 50.8527 4.63971 50.8527 5.14155C50.8527 5.64339 50.4457 6.04873 49.9418 6.04873Z" fill="white"/>
<path d="M49.9418 9.70498H47.655C47.1511 9.70498 46.7441 9.29964 46.7441 8.7978C46.7441 8.29596 47.1511 7.89062 47.655 7.89062H49.9418C50.4457 7.89062 50.8527 8.29596 50.8527 8.7978C50.8527 9.29964 50.4457 9.70498 49.9418 9.70498Z" fill="white"/>
<path d="M49.9418 13.369H47.655C47.1511 13.369 46.7441 12.9637 46.7441 12.4619C46.7441 11.96 47.1511 11.5547 47.655 11.5547H49.9418C50.4457 11.5547 50.8527 11.96 50.8527 12.4619C50.8527 12.9637 50.4457 13.369 49.9418 13.369Z" fill="white"/>
<path d="M31.4051 26.143C31.095 26.143 30.7946 25.9886 30.6202 25.7087C30.3586 25.2841 30.4942 24.7243 30.9303 24.4637L38.7404 19.7445C38.8857 19.6576 39.0504 19.6094 39.2152 19.6094H48.0621C48.5659 19.6094 48.9729 20.0147 48.9729 20.5166C48.9729 21.0184 48.5659 21.4237 48.0621 21.4237H39.4671L31.8702 26.0079C31.7345 26.1044 31.5698 26.143 31.4051 26.143Z" fill="white"/>
<path d="M41.5791 18.2636C40.8136 18.2636 40.019 18.0127 39.2438 17.2793C38.8756 16.9318 38.8562 16.3624 39.205 15.9957C39.5539 15.629 40.1256 15.6097 40.4938 15.9571C41.3174 16.7388 42.0345 16.5169 43.5752 15.793C44.9609 15.1368 46.8698 14.2489 48.6818 15.9571C49.05 16.3045 49.0694 16.8739 48.7205 17.2407C48.3717 17.6074 47.8 17.6267 47.4318 17.2793C46.5984 16.4975 45.8911 16.7195 44.3504 17.4433C43.5655 17.8101 42.5965 18.2636 41.5791 18.2636Z" fill="white"/>
<path d="M16.7449 26.6187C11.1441 26.6187 6.58984 22.0829 6.58984 16.5047C6.58984 10.9265 11.1441 6.39062 16.7449 6.39062C22.3457 6.39062 26.8999 10.9265 26.8999 16.5047C26.8999 22.0829 22.3457 26.6187 16.7449 26.6187ZM16.7449 7.15304C11.5705 7.15304 7.35535 11.3511 7.35535 16.5047C7.35535 21.6582 11.5705 25.8563 16.7449 25.8563C21.9193 25.8563 26.1344 21.6582 26.1344 16.5047C26.1344 11.3511 21.9193 7.15304 16.7449 7.15304Z" fill="white" stroke="white" stroke-width="0.75" stroke-miterlimit="10"/>
<path d="M4.62197 15.9946C4.40879 15.9946 4.23438 15.8209 4.23438 15.6086C4.23438 9.22936 9.43786 4.04688 15.8429 4.04688C16.0561 4.04688 16.2305 4.22059 16.2305 4.43291C16.2305 4.64523 16.0561 4.81894 15.8429 4.81894C9.86422 4.81894 5.00957 9.654 5.00957 15.6086C5.00957 15.8209 4.83515 15.9946 4.62197 15.9946Z" fill="white" stroke="white" stroke-width="0.75" stroke-miterlimit="10"/>
<path d="M16.7434 21.7005C13.8655 21.7005 11.5205 19.365 11.5205 16.4987C11.5205 13.6324 13.8655 11.2969 16.7434 11.2969C19.6213 11.2969 21.9662 13.6324 21.9662 16.4987C21.9662 19.365 19.6213 21.7005 16.7434 21.7005ZM16.7434 12.0593C14.2918 12.0593 12.2957 14.0474 12.2957 16.489C12.2957 18.9307 14.2918 20.9187 16.7434 20.9187C19.1949 20.9187 21.2007 18.9307 21.2007 16.489C21.191 14.0474 19.1949 12.0593 16.7434 12.0593Z" fill="white" stroke="white" stroke-width="0.75" stroke-miterlimit="10"/>
<path d="M19.1769 12.7265C19.1284 12.7265 19.08 12.7168 19.0315 12.6975C18.8377 12.6203 18.7312 12.3984 18.8087 12.1957L20.6207 7.59225C20.6982 7.38958 20.9211 7.29307 21.1246 7.37028C21.3281 7.44749 21.425 7.66945 21.3474 7.87212L19.5354 12.4756C19.4773 12.63 19.3319 12.7265 19.1769 12.7265Z" fill="white" stroke="white" stroke-width="0.75" stroke-miterlimit="10"/>
<path d="M26.5112 16.8893H21.579C21.3658 16.8893 21.1914 16.7155 21.1914 16.5032C21.1914 16.2909 21.3658 16.1172 21.579 16.1172H26.5112C26.7244 16.1172 26.8988 16.2909 26.8988 16.5032C26.8988 16.7155 26.7244 16.8893 26.5112 16.8893Z" fill="white" stroke="white" stroke-width="0.75" stroke-miterlimit="10"/>
<path d="M11.2595 24.945C11.1917 24.945 11.1239 24.9257 11.0657 24.887C10.8816 24.7809 10.8235 24.5396 10.9301 24.3563L13.4495 20.1099C13.556 19.9265 13.7983 19.8686 13.9824 19.9748C14.1665 20.0809 14.2246 20.3222 14.1181 20.5056L11.5987 24.7519C11.5212 24.8774 11.3952 24.945 11.2595 24.945Z" fill="white" stroke="white" stroke-width="0.75" stroke-miterlimit="10"/>
<path d="M14.9992 23.6549H14.786C14.5729 23.6549 14.3984 23.4812 14.3984 23.2688C14.3984 23.0565 14.5729 22.8828 14.786 22.8828H14.9992C15.2124 22.8828 15.3868 23.0565 15.3868 23.2688C15.3868 23.4812 15.2124 23.6549 14.9992 23.6549Z" fill="white" stroke="white" stroke-width="0.75" stroke-miterlimit="10"/>
<path d="M19.505 23.5377H17.1601C16.9469 23.5377 16.7725 23.364 16.7725 23.1517C16.7725 22.9393 16.9469 22.7656 17.1601 22.7656H19.505C19.7182 22.7656 19.8926 22.9393 19.8926 23.1517C19.8926 23.364 19.7182 23.5377 19.505 23.5377Z" fill="white" stroke="white" stroke-width="0.75" stroke-miterlimit="10"/>
<path d="M24.8451 22.3189H22.287C22.0738 22.3189 21.8994 22.1452 21.8994 21.9329C21.8994 21.7206 22.0738 21.5469 22.287 21.5469H24.8451C25.0583 21.5469 25.2327 21.7206 25.2327 21.9329C25.2327 22.1452 25.0583 22.3189 24.8451 22.3189Z" fill="white" stroke="white" stroke-width="0.75" stroke-miterlimit="10"/>
<path d="M23.5653 19.1314H21.1913C20.9781 19.1314 20.8037 18.9577 20.8037 18.7454C20.8037 18.5331 20.9781 18.3594 21.1913 18.3594H23.5653C23.7785 18.3594 23.9529 18.5331 23.9529 18.7454C23.9529 18.9577 23.7785 19.1314 23.5653 19.1314Z" fill="white" stroke="white" stroke-width="0.75" stroke-miterlimit="10"/>
</svg>
