<svg width="36" height="55" viewBox="0 0 36 55" fill="none" xmlns="http://www.w3.org/2000/svg">
<g clip-path="url(#clip0_977_486)">
<path d="M20.3912 26.2863H4.87549C4.40469 26.2863 4.01758 25.9341 4.01758 25.4997V15.4506C4.01758 15.0163 4.40469 14.6641 4.87549 14.6641H20.3912C20.862 14.6641 21.2491 15.0163 21.2491 15.4506V25.4997C21.2491 25.9341 20.8725 26.2863 20.3912 26.2863ZM5.73341 24.7249H19.5228V16.2489H5.73341V24.7249Z" fill="white"/>
<path d="M30.8747 16.2372H25.1831C24.7123 16.2372 24.3252 15.885 24.3252 15.4506C24.3252 15.0163 24.7123 14.6641 25.1831 14.6641H30.8747C31.3455 14.6641 31.7326 15.0163 31.7326 15.4506C31.7326 15.885 31.3455 16.2372 30.8747 16.2372Z" fill="white"/>
<path d="M30.8747 21.2606H25.1831C24.7123 21.2606 24.3252 20.9084 24.3252 20.4741C24.3252 20.0397 24.7123 19.6875 25.1831 19.6875H30.8747C31.3455 19.6875 31.7326 20.0397 31.7326 20.4741C31.7326 20.9084 31.3455 21.2606 30.8747 21.2606Z" fill="white"/>
<path d="M30.8747 26.284H25.1831C24.7123 26.284 24.3252 25.9319 24.3252 25.4975C24.3252 25.0631 24.7123 24.7109 25.1831 24.7109H30.8747C31.3455 24.7109 31.7326 25.0631 31.7326 25.4975C31.7326 25.9319 31.3455 26.284 30.8747 26.284Z" fill="white"/>
<path d="M35.0908 40.8334C34.7246 40.8334 34.4316 40.5047 34.4316 40.0938V38.6146C34.4316 38.2037 34.7246 37.875 35.0908 37.875C35.457 37.875 35.7499 38.2037 35.7499 38.6146V40.0938C35.7499 40.4929 35.457 40.8334 35.0908 40.8334Z" fill="white"/>
<path d="M35.0908 32.8811C34.7246 32.8811 34.4316 32.5524 34.4316 32.1415V28.9014C34.4316 28.4905 34.7246 28.1618 35.0908 28.1618C35.457 28.1618 35.7499 28.4905 35.7499 28.9014V32.1415C35.7499 32.5406 35.457 32.8811 35.0908 32.8811ZM35.0908 23.1724C34.7246 23.1724 34.4316 22.8437 34.4316 22.4328V19.1927C34.4316 18.7818 34.7246 18.4531 35.0908 18.4531C35.457 18.4531 35.7499 18.7818 35.7499 19.1927V22.4328C35.7499 22.8437 35.457 23.1724 35.0908 23.1724Z" fill="white"/>
<path d="M35.0908 13.4662C34.7246 13.4662 34.4316 13.1375 34.4316 12.7266V11.2474C34.4316 10.8365 34.7246 10.5078 35.0908 10.5078C35.457 10.5078 35.7499 10.8365 35.7499 11.2474V12.7266C35.7499 13.1375 35.457 13.4662 35.0908 13.4662Z" fill="white"/>
<path d="M32.1928 55H3.55721C1.59028 55 0 53.2156 0 51.0085V3.99146C0 1.78442 1.59028 0 3.55721 0H32.1928C34.1597 0 35.75 1.78442 35.75 3.99146V11.2465C35.75 11.6574 35.4571 11.9861 35.0909 11.9861C34.7247 11.9861 34.4317 11.6574 34.4317 11.2465V3.99146C34.4317 2.60619 33.4274 1.47919 32.1928 1.47919H3.55721C2.32265 1.47919 1.31826 2.60619 1.31826 3.99146V51.0085C1.31826 52.3938 2.32265 53.5208 3.55721 53.5208H32.1928C33.4274 53.5208 34.4317 52.3938 34.4317 51.0085V40.0907C34.4317 39.6798 34.7247 39.3511 35.0909 39.3511C35.4571 39.3511 35.75 39.6798 35.75 40.0907V51.0085C35.75 53.2038 34.1597 55 32.1928 55Z" fill="white"/>
<path d="M17.8806 52.8482C16.1857 52.8482 14.8047 51.2986 14.8047 49.3968C14.8047 47.4949 16.1857 45.9453 17.8806 45.9453C19.5755 45.9453 20.9566 47.4949 20.9566 49.3968C20.9566 51.2986 19.5755 52.8482 17.8806 52.8482ZM17.8806 47.4362C16.9076 47.4362 16.1229 48.3167 16.1229 49.4085C16.1229 50.5003 16.9076 51.3807 17.8806 51.3807C18.8536 51.3807 19.6383 50.5003 19.6383 49.4085C19.6279 48.3167 18.8432 47.4362 17.8806 47.4362Z" fill="white"/>
<path d="M35.0909 45.1745H0.659131C0.292947 45.1745 0 44.834 0 44.4349C0 44.024 0.292947 43.6953 0.659131 43.6953H35.0909C35.4571 43.6953 35.75 44.024 35.75 44.4349C35.75 44.834 35.4571 45.1745 35.0909 45.1745Z" fill="white"/>
<path d="M35.0909 6.26044H0.659131C0.292947 6.26044 0 5.93173 0 5.52084C0 5.10996 0.292947 4.78125 0.659131 4.78125H35.0909C35.4571 4.78125 35.75 5.10996 35.75 5.52084C35.75 5.93173 35.4571 6.26044 35.0909 6.26044Z" fill="white"/>
<path d="M20.7884 3.85419H14.9609C14.5947 3.85419 14.3018 3.52548 14.3018 3.11459C14.3018 2.70371 14.5947 2.375 14.9609 2.375H20.778C21.1442 2.375 21.4371 2.70371 21.4371 3.11459C21.4476 3.52548 21.1442 3.85419 20.7884 3.85419Z" fill="white"/>
</g>
<defs>
<clipPath id="clip0_977_486">
<rect width="35.75" height="55" fill="white"/>
</clipPath>
</defs>
</svg>
