<svg width="58" height="55" viewBox="0 0 58 55" fill="none" xmlns="http://www.w3.org/2000/svg">
<path d="M28.8651 24.8538C23.1179 24.8538 18.4551 20.1905 18.4551 14.4426C18.4551 8.69465 23.1179 4.03125 28.8651 4.03125C34.6123 4.03125 39.2751 8.69465 39.2751 14.4426C39.2751 20.1905 34.6123 24.8538 28.8651 24.8538ZM28.8651 5.87492C24.2023 5.87492 20.2985 9.6707 20.2985 14.4426C20.2985 19.2144 24.0938 23.0102 28.8651 23.0102C33.5279 23.0102 37.4317 19.2144 37.4317 14.4426C37.4317 9.6707 33.5279 5.87492 28.8651 5.87492Z" fill="white"/>
<path d="M28.8658 18.7855C28.3236 18.7855 27.8899 18.3517 27.8899 17.8094C27.8899 17.2671 28.3236 16.8333 28.8658 16.8333C30.1671 16.8333 31.3599 15.7488 31.3599 14.339C31.3599 12.9291 30.2755 11.953 28.8658 11.953C27.5646 11.953 26.3718 13.0376 26.3718 14.4474C26.3718 14.9897 25.938 15.4235 25.3958 15.4235C24.8536 15.4235 24.5283 14.9897 24.5283 14.4474C24.5283 12.0615 26.4802 10.1094 28.8658 10.1094C31.2515 10.1094 33.2033 12.0615 33.2033 14.4474C33.2033 16.8333 31.2515 18.7855 28.8658 18.7855Z" fill="white"/>
<path d="M14.444 44.598C12.0583 44.598 10.1064 42.6458 10.1064 40.2599C10.1064 37.874 12.0583 35.9219 14.444 35.9219C16.8296 35.9219 18.7815 37.874 18.7815 40.2599C18.7815 40.8022 18.3477 41.236 17.8055 41.236C17.2633 41.236 16.8296 40.8022 16.8296 40.2599C16.8296 38.9585 15.7452 37.7655 14.3355 37.7655C13.0343 37.7655 11.8414 38.8501 11.8414 40.2599C11.8414 41.5613 12.9258 42.7543 14.3355 42.7543C14.8777 42.7543 15.3115 43.1881 15.3115 43.7304C15.4199 44.1642 14.9861 44.598 14.444 44.598Z" fill="white"/>
<path d="M43.2867 44.598C40.9011 44.598 38.9492 42.6458 38.9492 40.2599C38.9492 39.7177 39.383 39.2839 39.9252 39.2839C40.4673 39.2839 40.9011 39.7177 40.9011 40.2599C40.9011 41.5613 41.9855 42.7543 43.3952 42.7543C44.8049 42.7543 45.8892 41.6698 45.8892 40.2599C45.8892 38.9585 44.8049 37.7655 43.3952 37.7655C42.7445 37.7655 42.3108 37.3317 42.3108 36.8979C42.3108 36.4641 42.7445 35.9219 43.2867 35.9219C45.6724 35.9219 47.6242 37.874 47.6242 40.2599C47.6242 42.6458 45.6724 44.598 43.2867 44.598Z" fill="white"/>
<path d="M42.6371 15.4236C42.0949 15.4236 41.6612 14.9898 41.6612 14.4475C41.6612 14.0137 41.6612 13.4714 41.5527 13.0376C41.5527 12.4954 41.878 12.0616 42.4202 11.9531C42.9624 11.9531 43.3962 12.2785 43.5046 12.8207C43.6131 13.363 43.6131 13.9052 43.6131 14.4475C43.6131 14.9898 43.1793 15.4236 42.6371 15.4236Z" fill="white"/>
<path d="M40.7936 8.47996C40.4683 8.47996 40.143 8.26306 39.9261 8.04616C39.4923 7.17855 38.9501 6.52784 38.408 5.87714C37.9742 5.44333 38.0826 4.79262 38.408 4.46727C38.8417 4.14192 39.3839 4.14192 39.7092 4.57572C40.3598 5.33488 41.0105 6.20249 41.5527 7.0701C41.7695 7.5039 41.6611 8.15461 41.2273 8.37151C41.1189 8.37151 40.902 8.47996 40.7936 8.47996ZM17.0457 8.47996C16.8289 8.47996 16.7204 8.47996 16.612 8.37151C16.0698 8.04616 15.8529 7.5039 16.1782 6.96165C16.7204 6.09404 17.2626 5.22643 18.0217 4.46727C18.347 4.03347 18.9976 4.03347 19.3229 4.35882C19.7567 4.79262 19.7567 5.44333 19.4314 5.87714C18.7807 6.52784 18.347 7.287 17.8048 8.04616C17.5879 8.26306 17.3711 8.47996 17.0457 8.47996ZM34.3958 2.84051C34.2873 2.84051 34.1789 2.84051 33.962 2.73206C33.203 2.4067 32.4439 2.08135 31.5764 1.86445C31.0342 1.756 30.7089 1.21374 30.8173 0.779937C30.9258 0.237681 31.3595 -0.0876716 31.9017 0.0207794C32.8776 0.237681 33.8536 0.563035 34.8295 0.996839C35.2633 1.21374 35.4801 1.756 35.2633 2.29825C35.1548 2.6236 34.8295 2.84051 34.3958 2.84051ZM23.3351 2.84051C23.0098 2.84051 22.5761 2.6236 22.4676 2.29825C22.2507 1.86445 22.4676 1.21374 22.9014 0.996839C23.8773 0.563035 24.8533 0.237681 25.8292 0.0207794C26.3714 -0.0876716 26.8051 0.237681 26.9136 0.779937C27.022 1.32219 26.6967 1.756 26.1545 1.86445C25.3954 2.08135 24.5279 2.4067 23.6604 2.73206C23.552 2.73206 23.4436 2.84051 23.3351 2.84051Z" fill="white"/>
<path d="M15.0931 15.4236C14.5509 15.4236 14.1172 14.9898 14.1172 14.4475C14.1172 13.9052 14.1172 13.363 14.2256 12.8207C14.3341 12.2785 14.7678 11.9531 15.31 11.9531C15.8522 12.0616 16.1775 12.4954 16.1775 13.0376C16.1775 13.4714 16.0691 14.0137 16.0691 14.4475C16.0691 14.9898 15.6353 15.4236 15.0931 15.4236Z" fill="white"/>
<path d="M43.2875 54.9981C42.7453 54.9981 42.3115 54.5643 42.3115 54.022C42.3115 53.4798 42.7453 53.0459 43.2875 53.0459C43.7212 53.0459 44.2634 53.046 44.6971 52.9375C45.2393 52.9375 45.6731 53.2629 45.7815 53.8051C45.89 54.3474 45.4562 54.7812 44.914 54.8896C44.3718 54.8896 43.8296 54.9981 43.2875 54.9981Z" fill="white"/>
<path d="M50.2269 53.0411C49.9016 53.0411 49.5763 52.8242 49.3594 52.6073C49.1425 52.1735 49.251 51.5228 49.6847 51.3059C50.4438 50.8721 51.2029 50.3298 51.8535 49.6791C52.2872 49.3537 52.8294 49.3537 53.1547 49.7876C53.5885 50.2214 53.5885 50.7636 53.1547 51.089C52.3957 51.8481 51.6366 52.3904 50.7691 52.9326C50.5522 53.0411 50.4438 53.0411 50.2269 53.0411ZM55.8657 46.7509C55.7572 46.7509 55.6488 46.7509 55.4319 46.6425C54.9982 46.4256 54.7813 45.8833 54.9982 45.4495C55.3235 44.5819 55.6488 43.8227 55.8657 42.8467C55.9741 42.3044 56.5163 41.9791 56.95 42.0875C57.4922 42.3044 57.8176 42.7382 57.7091 43.2805C57.4922 44.2565 57.1669 45.2326 56.7332 46.2087C56.6247 46.534 56.2994 46.7509 55.8657 46.7509ZM56.7332 38.4002C56.2994 38.4002 55.8657 38.0748 55.7572 37.641C55.6488 36.7734 55.4319 35.9058 54.9982 35.0382C54.7813 34.6044 54.9982 33.9537 55.4319 33.7368C55.8657 33.5199 56.5163 33.7368 56.7332 34.1706C57.1669 35.2551 57.4922 36.2312 57.7091 37.2072C57.8176 37.7495 57.4922 38.1833 56.95 38.2917C56.95 38.4002 56.8416 38.4002 56.7332 38.4002ZM52.5041 31.0255C52.2872 31.0255 52.0704 30.9171 51.8535 30.8086C51.2029 30.1579 50.4438 29.7241 49.6847 29.1819C49.3594 28.965 49.1425 28.3142 49.4678 27.8804C49.6847 27.4466 50.3353 27.2297 50.7691 27.5551C51.6366 28.0973 52.5041 28.6396 53.2632 29.3988C53.6969 29.7241 53.6969 30.3748 53.3716 30.7002C53.0463 30.9171 52.8294 31.0255 52.5041 31.0255Z" fill="white"/>
<path d="M44.8056 27.5684C44.2634 27.4599 43.7212 27.4599 43.2875 27.4599C42.7453 27.4599 42.3115 27.0261 42.3115 26.4839C42.3115 25.9416 42.7453 25.5078 43.2875 25.5078C43.8296 25.5078 44.3718 25.5078 44.914 25.6163C45.4562 25.7247 45.7815 26.1585 45.7815 26.7008C45.7815 27.1346 45.3478 27.5684 44.8056 27.5684Z" fill="white"/>
<path d="M12.9242 27.5684C12.4904 27.5684 12.0567 27.243 11.9482 26.7008C11.9482 26.1585 12.2736 25.7247 12.8157 25.6163C13.3579 25.5078 13.9001 25.5078 14.4423 25.5078C14.9845 25.5078 15.4182 25.9416 15.4182 26.4839C15.4182 27.0261 14.9845 27.4599 14.4423 27.4599C14.0086 27.4599 13.4664 27.4599 12.9242 27.5684Z" fill="white"/>
<path d="M7.50298 53.0476C7.2861 53.0476 7.17766 53.0476 7.06923 52.9391C6.20172 52.3969 5.33422 51.8546 4.57516 51.0955C4.14141 50.7701 4.14141 50.2278 4.46672 49.794C4.79203 49.3602 5.44266 49.3602 5.87641 49.6856C6.52704 50.3363 7.2861 50.7701 8.04517 51.3124C8.47892 51.5293 8.69579 52.18 8.37048 52.6138C8.1536 52.9391 7.82829 53.0476 7.50298 53.0476ZM1.86422 46.7574C1.5389 46.7574 1.10515 46.5405 0.996716 46.2152C0.562965 45.2391 0.237652 44.263 0.0207768 43.287C-0.0876608 42.7447 0.237652 42.3109 0.779841 42.2025C1.32203 42.094 1.75578 42.4194 1.86422 42.9616C2.08109 43.8292 2.29797 44.6968 2.73172 45.456C2.94859 45.8898 2.73172 46.5405 2.29797 46.7574C2.08109 46.7574 1.97266 46.7574 1.86422 46.7574ZM0.996716 38.2982C0.888278 38.2982 0.888278 38.2982 0.779841 38.2982C0.237652 38.1898 -0.0876608 37.756 0.0207768 37.2137C0.237652 36.2377 0.562965 35.2616 0.996716 34.2855C1.21359 33.8517 1.75578 33.6348 2.29797 33.8517C2.84016 34.0686 2.94859 34.6109 2.73172 35.1531C2.40641 35.9123 2.08109 36.6715 1.86422 37.6475C1.86422 38.0813 1.43047 38.2982 0.996716 38.2982ZM5.22579 31.032C5.00891 31.032 4.6836 30.9236 4.46672 30.7067C4.14141 30.2729 4.14141 29.7306 4.57516 29.4052C5.33422 28.7545 6.20172 28.1038 7.06923 27.5616C7.50298 27.3447 8.1536 27.4531 8.37048 27.8869C8.58735 28.3207 8.47892 28.9714 8.04517 29.1883C7.17766 29.6221 6.52704 30.1644 5.87641 30.8151C5.65954 30.9236 5.44266 31.032 5.22579 31.032Z" fill="white"/>
<path d="M14.4423 54.9981C13.9001 54.9981 13.3579 54.9981 12.8157 54.8896C12.2736 54.7812 11.9482 54.3474 11.9482 53.8051C12.0567 53.2629 12.4904 52.9375 13.0326 52.9375C13.4664 52.9375 14.0086 53.0459 14.4423 53.0459C14.9845 53.0459 15.4182 53.4798 15.4182 54.022C15.4182 54.5643 14.9845 54.9981 14.4423 54.9981Z" fill="white"/>
<path d="M43.287 50.6742C37.5398 50.6742 32.877 46.0108 32.877 40.2629C32.877 34.515 37.5398 29.8516 43.287 29.8516C49.0342 29.8516 53.697 34.515 53.697 40.2629C53.697 46.0108 49.0342 50.6742 43.287 50.6742ZM43.287 31.6952C38.6241 31.6952 34.7204 35.491 34.7204 40.2629C34.7204 44.9263 38.5157 48.8305 43.287 48.8305C48.0582 48.8305 51.8535 45.0347 51.8535 40.2629C51.8535 35.5995 48.0582 31.6952 43.287 31.6952Z" fill="white"/>
<path d="M14.4422 50.6742C8.69505 50.6742 4.03223 46.0108 4.03223 40.2629C4.03223 34.515 8.69505 29.8516 14.4422 29.8516C20.1894 29.8516 24.8523 34.515 24.8523 40.2629C24.8523 46.0108 20.1894 50.6742 14.4422 50.6742ZM14.4422 31.6952C9.77942 31.6952 5.87567 35.491 5.87567 40.2629C5.87567 44.9263 9.67099 48.8305 14.4422 48.8305C19.2135 48.8305 23.0088 45.0347 23.0088 40.2629C22.9004 35.5995 19.1051 31.6952 14.4422 31.6952Z" fill="white"/>
<path d="M33.8524 41.2399H23.8761C23.3339 41.2399 22.9002 40.8061 22.9002 40.2639C22.9002 37.2272 21.2736 34.2991 18.5627 32.7808C18.1289 32.5639 18.0205 32.0216 18.2373 31.4793L23.4424 22.1526C23.5508 21.9357 23.7677 21.7188 23.9845 21.7188C24.2014 21.7188 24.5267 21.7187 24.7436 21.8272C27.2377 23.2371 30.4908 23.2371 33.0933 21.8272C33.2017 21.7187 33.5271 21.7187 33.7439 21.8272C33.9608 21.9357 34.1777 22.0441 34.2861 22.261L39.4911 31.4793C39.8164 32.0216 39.5996 32.5639 39.1658 32.7808C36.4549 34.2991 34.8283 37.1188 34.8283 40.2639C34.8283 40.8061 34.3946 41.2399 33.8524 41.2399ZM24.852 39.2878H32.9849C33.3102 36.2512 34.9367 33.4315 37.4308 31.6962L33.0933 23.9962C30.3824 25.1892 27.2377 25.1892 24.6352 23.9962L20.2977 31.6962C22.9002 33.4315 24.5267 36.2512 24.852 39.2878Z" fill="white"/>
</svg>
