<svg width="50" height="55" viewBox="0 0 50 55" fill="none" xmlns="http://www.w3.org/2000/svg">
<g clip-path="url(#clip0_977_732)">
<path d="M30.9328 27.4971H18.7503C15.7842 27.4971 13.3477 25.0738 13.3477 22.1236C13.3477 19.1734 15.7842 16.75 18.7503 16.75H30.9328C33.899 16.75 36.3355 19.1734 36.3355 22.1236C36.3355 25.0738 33.899 27.4971 30.9328 27.4971ZM18.7503 18.7519C16.9494 18.7519 15.4664 20.227 15.4664 22.0182C15.4664 23.8094 16.9494 25.2845 18.7503 25.2845H30.9328C32.7337 25.2845 34.2168 23.8094 34.2168 22.0182C34.2168 20.227 32.7337 18.7519 30.9328 18.7519H18.7503Z" fill="white"/>
<path d="M45.9757 55.0013H3.60178C1.58902 55.0013 0 53.3155 0 51.4189V24.5511C0 22.5492 1.58902 20.9688 3.60178 20.9688H14.4071C15.0427 20.9688 15.4665 21.3902 15.4665 22.0224C15.4665 23.8136 16.9496 25.2887 18.7505 25.2887H30.933C32.7338 25.2887 34.2169 23.8136 34.2169 22.0224C34.2169 21.3902 34.6407 20.9688 35.2763 20.9688H46.0816C48.0944 20.9688 49.6834 22.5492 49.6834 24.5511V51.3136C49.5775 53.3155 47.9884 55.0013 45.9757 55.0013ZM3.60178 23.076C2.7543 23.076 2.1187 23.7082 2.1187 24.5511V51.3136C2.1187 52.1565 2.7543 52.7887 3.60178 52.7887H45.9757C46.8232 52.7887 47.4588 52.1565 47.4588 51.3136V24.5511C47.4588 23.7082 46.8232 23.076 45.9757 23.076H36.2297C35.7 25.4994 33.5813 27.396 30.933 27.396H18.7505C16.1021 27.396 13.9834 25.4994 13.4537 23.076H3.60178Z" fill="white"/>
<path d="M30.933 18.7548H18.7505C18.3268 18.7548 18.009 18.5441 17.7971 18.1226C17.5853 17.8065 17.6912 17.3851 17.9031 17.069L31.039 0.421456C31.1449 0.105364 31.4627 0 31.7805 0H43.5393C43.963 0 44.2808 0.210728 44.4927 0.632184C44.7046 1.05364 44.5986 1.36973 44.3868 1.68582L31.7805 18.3333C31.5686 18.6494 31.2508 18.7548 30.933 18.7548ZM20.8692 16.6475H30.2974L41.4206 2.10728H32.3102L20.8692 16.6475Z" fill="white"/>
<path d="M18.7508 18.7548C18.433 18.7548 18.1152 18.6494 17.9033 18.3333L5.19115 1.68582C4.97928 1.36973 4.87334 0.948276 5.08521 0.632184C5.29708 0.210728 5.61489 0 6.03863 0H17.7974C18.1152 0 18.433 0.105364 18.6449 0.421456L25.6366 9.37739C25.9544 9.79885 25.9544 10.3257 25.6366 10.6418L19.5983 18.4387C19.3864 18.6494 19.0686 18.7548 18.7508 18.7548ZM8.15732 2.10728L18.7508 16.0153L23.5179 10.0096L17.2677 2.10728H8.15732Z" fill="white"/>
<path d="M20.3392 47.6244C19.7036 47.6244 19.2798 47.203 19.2798 46.5708V43.6206C19.2798 42.3562 18.2205 41.3026 16.9493 41.3026H10.0635C8.7923 41.3026 7.73295 42.3562 7.73295 43.6206V46.5708C7.73295 47.203 7.30921 47.6244 6.67361 47.6244C6.038 47.6244 5.61426 47.203 5.61426 46.5708V43.6206C5.61426 41.1972 7.62702 39.1953 10.0635 39.1953H16.9493C19.3858 39.1953 21.3985 41.1972 21.3985 43.6206V46.5708C21.3985 47.0976 20.9748 47.6244 20.3392 47.6244Z" fill="white"/>
<path d="M13.5592 37.8278C11.3346 37.8278 9.42773 36.0366 9.42773 33.7186C9.42773 31.4006 11.2286 29.6094 13.5592 29.6094C15.7838 29.6094 17.6906 31.4006 17.6906 33.7186C17.6906 36.0366 15.7838 37.8278 13.5592 37.8278ZM13.5592 31.7167C12.4998 31.7167 11.5464 32.5596 11.5464 33.7186C11.5464 34.7722 12.3939 35.7205 13.5592 35.7205C14.6185 35.7205 15.572 34.8776 15.572 33.7186C15.572 32.6649 14.6185 31.7167 13.5592 31.7167Z" fill="white"/>
<path d="M42.586 33.7167H27.6492C27.0136 33.7167 26.5898 33.2952 26.5898 32.663C26.5898 32.0308 27.0136 31.6094 27.6492 31.6094H42.586C43.2216 31.6094 43.6453 32.0308 43.6453 32.663C43.6453 33.1898 43.1157 33.7167 42.586 33.7167Z" fill="white"/>
<path d="M42.586 38.3495H27.6492C27.0136 38.3495 26.5898 37.928 26.5898 37.2958C26.5898 36.6636 27.0136 36.2422 27.6492 36.2422H42.586C43.2216 36.2422 43.6453 36.6636 43.6453 37.2958C43.6453 37.8226 43.1157 38.3495 42.586 38.3495Z" fill="white"/>
<path d="M42.586 42.9901H27.6492C27.0136 42.9901 26.5898 42.5686 26.5898 41.9365C26.5898 41.3043 27.0136 40.8828 27.6492 40.8828H42.586C43.2216 40.8828 43.6453 41.3043 43.6453 41.9365C43.6453 42.5686 43.1157 42.9901 42.586 42.9901Z" fill="white"/>
<path d="M42.586 47.6229H27.6492C27.0136 47.6229 26.5898 47.2014 26.5898 46.5693C26.5898 45.9371 27.0136 45.5156 27.6492 45.5156H42.586C43.2216 45.5156 43.6453 45.9371 43.6453 46.5693C43.6453 47.2014 43.1157 47.6229 42.586 47.6229Z" fill="white"/>
<path d="M29.8735 23.076H14.407C13.7714 23.076 13.3477 22.6546 13.3477 22.0224C13.3477 21.3902 13.7714 20.9688 14.407 20.9688H29.9794C30.615 20.9688 31.0388 21.3902 31.0388 22.0224C30.9328 22.6546 30.5091 23.076 29.8735 23.076Z" fill="white"/>
</g>
<defs>
<clipPath id="clip0_977_732">
<rect width="49.5775" height="55" fill="white"/>
</clipPath>
</defs>
</svg>
