<svg xmlns="http://www.w3.org/2000/svg" viewBox="0 0 11.73 11.33"><defs><style>.cls-1{fill:#fff;fill-rule:evenodd;}.cls-1,.cls-2{stroke:#000;stroke-linecap:round;stroke-linejoin:round;}.cls-2{fill:none;}</style></defs><g id="Layer_2" data-name="Layer 2"><g id="Layer_1-2" data-name="Layer 1"><path class="cls-1" d="M1.65,1.64,3,4a1.55,1.55,0,0,0-.31,1.78A4,4,0,0,0,3.91,7.69a1.25,1.25,0,0,0,1.28.36.21.21,0,0,1,.2.07c.45.76.89,1.53,1.33,2.3a1.74,1.74,0,0,1-2.34-.08A9.74,9.74,0,0,1,2.09,7.68,10.18,10.18,0,0,1,.52,3.6,1.66,1.66,0,0,1,1.65,1.64Z"/><path class="cls-1" d="M8,9.89c-.07.36-.42.42-.66.56a1.17,1.17,0,0,1-.53.1s-.11-.11-.15-.17L5.39,8.27c-.18-.31-.14-.44.16-.61l.56-.32a.31.31,0,0,1,.47.12L7.9,9.75S7.93,9.84,8,9.89Z"/><path class="cls-1" d="M4.26,3.57a1.47,1.47,0,0,1-.32.29c-.29.12-.49.47-.87.32A.38.38,0,0,1,2.91,4L1.65,1.83A.33.33,0,0,1,1.8,1.3L2.37,1a.33.33,0,0,1,.5.12c.44.75.87,1.5,1.3,2.26C4.2,3.39,4.21,3.45,4.26,3.57Z"/><path class="cls-2" d="M6.34,1.94c.83-.51,2.12.07,2.9,1.31S10,5.91,9.16,6.43"/><path class="cls-2" d="M6.78.74C7.84.08,9.51.83,10.51,2.42s1,3.42-.11,4.08"/><path class="cls-2" d="M6.31,2.94c.58-.36,1.49.05,2,.91s.52,1.86-.05,2.23"/></g></g></svg>