<svg xmlns="http://www.w3.org/2000/svg" viewBox="0 0 8.39 9.84"><defs><style>.cls-1{fill:none;}.cls-1,.cls-2{stroke:#000;stroke-linecap:round;stroke-linejoin:round;}.cls-2{fill:#fff;}</style></defs><g id="Layer_2" data-name="Layer 2"><g id="Layer_1-2" data-name="Layer 1"><path class="cls-1" d="M7.89,8.62a.72.72,0,0,1-.72.72H1.23A.72.72,0,0,1,.5,8.62V2.45a.72.72,0,0,1,.73-.73H7.17a.72.72,0,0,1,.72.73Z"/><line class="cls-1" x1="0.6" y1="3.98" x2="7.89" y2="3.98"/><line class="cls-1" x1="0.5" y1="7.17" x2="7.89" y2="7.17"/><line class="cls-1" x1="2.62" y1="1.72" x2="2.62" y2="9.34"/><line class="cls-1" x1="5.92" y1="1.72" x2="5.92" y2="9.23"/><path class="cls-2" d="M6.47,2.71c0,1.22-1,4.67-2.21,4.67S2.05,3.93,2.05,2.71a2.21,2.21,0,0,1,4.42,0Z"/><polygon class="cls-1" points="3.23 2.97 3.24 2.97 3.24 4.38 5.4 4.38 5.4 2.97 5.41 2.97 3.23 2.97"/><polyline class="cls-1" points="2.72 2.6 4.32 1.16 5.8 2.6"/><rect x="4.01" y="3.67" width="0.6" height="0.71"/></g></g></svg>