<svg width="35" height="35" viewBox="0 0 35 35" fill="none" xmlns="http://www.w3.org/2000/svg">
<path d="M17.4665 34.93C27.1136 34.93 34.93 27.1106 34.93 17.4665C34.93 7.81938 27.1106 0 17.4665 0C7.81938 0 0.00302608 7.81938 0 17.4635C0.00302608 27.1106 7.81938 34.927 17.4665 34.93Z" fill="#1057B6"/>
<path d="M14.9579 25.8639C14.4367 25.8639 13.9424 25.6074 13.6074 25.2062L8.408 18.9541C7.78548 18.2075 7.88682 17.0928 8.63343 16.4723C9.37797 15.8498 10.4865 15.9491 11.109 16.6936L14.9165 21.2601L23.214 10.6732C23.8137 9.91005 24.9181 9.77562 25.6813 10.3733C26.4444 10.9731 26.5789 12.0775 25.9812 12.8406L16.3415 25.1648C16.0147 25.5826 15.5142 25.8639 14.9848 25.8639C14.9765 25.8639 14.9661 25.8639 14.9579 25.8639Z" fill="white"/>
</svg>
